# xmcd CD database file
#
# Track frame offsets:
#	150
#	19579
#	38631
#	51934
#	66733
#	82758
#	100561
#	122205
#	142943
#	161126
#	177462
#	201664
#	221772
#	239612
#	257100
#	272297
#	289652
#	308809
#	328755
#
# Disc length: 4638 seconds
#
# Revision: 0
# Processed by: cddbd v1.5.2PL0 Copyright (c) Steve Scherf et al.
# Submitted via: CDex 1.77
#
DISCID=1d121c13
DTITLE=Movie Sound Tracks / Love Scenes - 18 Classic Movie Love Songs
DYEAR=
DGENRE=Soundtrack
TTITLE0=Daniel Bedingfield - If You're Not The One (Maid In Manhattan)
TTITLE1=Ronan Keating - When You Say Nothing At All (Notting Hill)
TTITLE2=Roy Orbison - Pretty Woman (Pretty Woman)
TTITLE3=Gabrielle - Out Of Reach (Bridget Jones' Diary)
TTITLE4=Beautiful South - Dream A Little Dream (French Kiss)
TTITLE5=Wet Wet Wet - Love Is All Around (Four Weddings And A Funeral)
TTITLE6=Foreigner - Waiting For A Girl Like You (Footloose)
TTITLE7=Jamie O'Neal - All By Myself (Bridget Jones' Diary)
TTITLE8=Trish Yearwood - How Do I Live (Con Air)
TTITLE9=The Righteous Brothers - Unchained Melody (Ghost)
TTITLE10=R Kelly - I Believe I Can Fly (Space Jam)
TTITLE11=Starship - Nothing's Gonna Stop Us Now (Mannequin)
TTITLE12=Lauren Wood - Fallen (Pretty Woman)
TTITLE13=Joe Cocker & Jennifer Warnes - Up Where I Belong (An Officer And A Gentleman)
TTITLE14=Diana Ross Do You Know Where You're Going To (Mahogany)
TTITLE15=David Foster & Marilyn Martin - And When She Danced (Stealing Home)
TTITLE16=Chris De Burgh - The Lady In Red (Working Girl)
TTITLE17=Lionel Richie & Diana Ross - Endless Love (Endless Love)
TTITLE18=Phil Collins - You'll Be In My Heart (Tarzen)
EXTD=
EXTT0=
EXTT1=
EXTT2=
EXTT3=
EXTT4=
EXTT5=
EXTT6=
EXTT7=
EXTT8=
EXTT9=
EXTT10=
EXTT11=
EXTT12=
EXTT13=
EXTT14=
EXTT15=
EXTT16=
EXTT17=
EXTT18=
PLAYORDER=
